<svg width="18" height="15" viewBox="0 0 18 15" fill="none" xmlns="http://www.w3.org/2000/svg">
<path fill-rule="evenodd" clip-rule="evenodd" d="M0.87868 1.85524C0 2.73392 0 4.14814 0 6.97656V8.97656C0 11.805 0 13.2192 0.87868 14.0979C1.75736 14.9766 3.17157 14.9766 6 14.9766H12C14.8284 14.9766 16.2426 14.9766 17.1213 14.0979C18 13.2192 18 11.805 18 8.97656V6.97656C18 4.14814 18 2.73392 17.1213 1.85524C16.2426 0.976562 14.8284 0.976562 12 0.976562H6C3.17157 0.976562 1.75736 0.976562 0.87868 1.85524ZM3.5547 4.14451C3.09517 3.83816 2.4743 3.96233 2.16795 4.42186C1.8616 4.88139 1.98577 5.50226 2.4453 5.80861L7.8906 9.43881C8.5624 9.88668 9.4376 9.88668 10.1094 9.43881L15.5547 5.80861C16.0142 5.50226 16.1384 4.88139 15.8321 4.42186C15.5257 3.96233 14.9048 3.83816 14.4453 4.14451L9 7.77471L3.5547 4.14451Z" fill="white"/>
</svg>
