<svg width="19" height="15" viewBox="0 0 19 15" fill="none" xmlns="http://www.w3.org/2000/svg">
<path fill-rule="evenodd" clip-rule="evenodd" d="M1.37868 1.35524C0.5 2.23392 0.5 3.64814 0.5 6.47656V8.47656C0.5 11.305 0.5 12.7192 1.37868 13.5979C2.25736 14.4766 3.67157 14.4766 6.5 14.4766H12.5C15.3284 14.4766 16.7426 14.4766 17.6213 13.5979C18.5 12.7192 18.5 11.305 18.5 8.47656V6.47656C18.5 3.64814 18.5 2.23392 17.6213 1.35524C16.7426 0.476562 15.3284 0.476562 12.5 0.476562H6.5C3.67157 0.476562 2.25736 0.476562 1.37868 1.35524ZM4.0547 3.64451C3.59517 3.33816 2.9743 3.46233 2.66795 3.92186C2.3616 4.38139 2.48577 5.00226 2.9453 5.30861L8.3906 8.93881C9.0624 9.38668 9.9376 9.38668 10.6094 8.93881L16.0547 5.30861C16.5142 5.00226 16.6384 4.38139 16.3321 3.92186C16.0257 3.46233 15.4048 3.33816 14.9453 3.64451L9.5 7.27471L4.0547 3.64451Z" fill="#132537"/>
</svg>
