<svg width="14" height="17" viewBox="0 0 14 17" fill="none" xmlns="http://www.w3.org/2000/svg">
<path fill-rule="evenodd" clip-rule="evenodd" d="M7.39804 16.7805C8.88097 16.0114 14 12.9929 14 7.97656C14 4.11057 10.866 0.976562 7 0.976562C3.13401 0.976562 0 4.11057 0 7.97656C0 12.9929 5.11903 16.0114 6.60196 16.7805C6.85483 16.9117 7.14517 16.9117 7.39804 16.7805ZM7 10.9766C8.65685 10.9766 10 9.63342 10 7.97656C10 6.31971 8.65685 4.97656 7 4.97656C5.34315 4.97656 4 6.31971 4 7.97656C4 9.63342 5.34315 10.9766 7 10.9766Z" fill="white"/>
</svg>
