<svg width="16" height="17" viewBox="0 0 16 17" fill="none" xmlns="http://www.w3.org/2000/svg">
<path d="M2 6.65088V8.65088C2 11.4793 2 12.8935 2.87868 13.7722C3.75736 14.6509 5.17157 14.6509 8 14.6509V14.6509C10.8284 14.6509 12.2426 14.6509 13.1213 13.7722C14 12.8935 14 11.4793 14 8.65088V8.65088C14 5.82245 14 4.40824 13.1213 3.52956C12.2426 2.65088 10.8284 2.65088 8 2.65088H6" stroke="#5D5FEF" stroke-width="1.3" stroke-linecap="round"/>
<path d="M10 10.6509V11.3009H10.65V10.6509H10ZM5.12629 4.85793C4.87245 4.60409 4.46089 4.60409 4.20705 4.85793C3.95321 5.11177 3.95321 5.52332 4.20705 5.77716L5.12629 4.85793ZM9.35 5.98421V10.6509H10.65V5.98421H9.35ZM10 10.0009H5.33333V11.3009H10V10.0009ZM10.4596 10.1913L5.12629 4.85793L4.20705 5.77716L9.54038 11.1105L10.4596 10.1913Z" fill="#5D5FEF"/>
</svg>
