<svg width="30" height="30" viewBox="0 0 30 30" fill="none" xmlns="http://www.w3.org/2000/svg">
<path fill-rule="evenodd" clip-rule="evenodd" d="M30 15C30 23.2843 23.2843 30 15 30C6.71573 30 0 23.2843 0 15C0 6.71573 6.71573 0 15 0C23.2843 0 30 6.71573 30 15ZM16.6667 8.33333C16.6667 9.25381 15.9205 10 15 10C14.0795 10 13.3333 9.25381 13.3333 8.33333C13.3333 7.41286 14.0795 6.66667 15 6.66667C15.9205 6.66667 16.6667 7.41286 16.6667 8.33333ZM16 23.3333V13.3333H14V23.3333H16Z" fill="#5D5FEF"/>
</svg>
