<svg width="210" height="60" viewBox="0 0 210 60" fill="none" xmlns="http://www.w3.org/2000/svg">
<g clip-path="url(#clip0_250_206)">
<path d="M45.9925 36.6427H41.5117V20.7913H45.9925V36.6427ZM52.4272 30.4669H45.7178V26.7473H52.4664L52.4272 30.4669ZM52.1055 20.7913H56.5941V36.6427H52.1055V20.7913Z" fill="black"/>
<path d="M61.7108 23.012C61.018 23.0439 60.3391 22.8111 59.8118 22.3607C59.582 22.1554 59.3982 21.9038 59.2724 21.6226C59.1466 21.3413 59.0815 21.0366 59.0815 20.7285C59.0815 20.4204 59.1466 20.1157 59.2724 19.8344C59.3982 19.5532 59.582 19.3016 59.8118 19.0963C60.3363 18.6403 61.0165 18.4042 61.7108 18.4371C62.3995 18.4056 63.0756 18.6291 63.6098 19.0649C63.8416 19.2548 64.0276 19.4946 64.1539 19.7663C64.2803 20.038 64.3437 20.3347 64.3396 20.6343C64.3469 20.9501 64.2871 21.2638 64.1639 21.5547C64.0408 21.8455 63.8573 22.1069 63.6255 22.3215C63.1027 22.7941 62.4149 23.0422 61.7108 23.012ZM59.5606 36.6427V24.3696H63.8609V36.6427H59.5606Z" fill="black"/>
<path d="M66.6465 41.0372V24.3696H70.7428V26.457V30.5061L70.9703 34.5867V41.0372H66.6465ZM74.3682 36.8467C73.4288 36.8747 72.5008 36.6352 71.6923 36.1562C70.9221 35.6611 70.3309 34.9323 70.0051 34.0767C69.5853 32.9347 69.3907 31.7221 69.4322 30.5061C69.3933 29.2878 69.5768 28.0725 69.9737 26.92C70.2771 26.0675 70.8537 25.3392 71.6138 24.8483C72.4497 24.3668 73.4042 24.1302 74.3682 24.1656C75.4344 24.155 76.4846 24.4257 77.4129 24.9503C78.3249 25.4701 79.0767 26.2301 79.5866 27.1475C80.113 28.1917 80.3872 29.3447 80.3872 30.514C80.3872 31.6833 80.113 32.8364 79.5866 33.8805C79.0813 34.8015 78.3284 35.5626 77.4129 36.0777C76.484 36.6 75.4338 36.8679 74.3682 36.8546V36.8467ZM73.4579 33.4332C73.9191 33.4421 74.3734 33.3209 74.7689 33.0836C75.1645 32.8463 75.4852 32.5024 75.6944 32.0913C75.9171 31.598 76.0323 31.063 76.0323 30.5218C76.0323 29.9807 75.9171 29.4456 75.6944 28.9524C75.4795 28.5415 75.1566 28.1969 74.7606 27.9558C74.3635 27.7345 73.9164 27.6184 73.4618 27.6184C73.0072 27.6184 72.5602 27.7345 72.1631 27.9558C71.767 28.1969 71.4442 28.5415 71.2293 28.9524C71.0015 29.4443 70.8836 29.9798 70.8836 30.5218C70.8836 31.0639 71.0015 31.5994 71.2293 32.0913C71.4379 32.5012 71.7573 32.8443 72.1513 33.0815C72.5453 33.3187 72.998 33.4406 73.4579 33.4332Z" fill="black"/>
<path d="M82.3804 41.0372V24.3696H86.5237V26.457V30.5061L86.7513 34.5867V41.0372H82.3804ZM90.1021 36.8467C89.1651 36.875 88.2396 36.6354 87.434 36.1562C86.662 35.6632 86.0702 34.9337 85.7469 34.0767C85.3244 32.9352 85.1272 31.7227 85.1662 30.5061C85.1272 29.2878 85.3107 28.0726 85.7076 26.92C86.0141 26.067 86.5933 25.3388 87.3555 24.8483C88.1885 24.3666 89.1405 24.13 90.1021 24.1656C91.1685 24.1539 92.2189 24.4247 93.1468 24.9503C94.0605 25.4678 94.8129 26.2283 95.3205 27.1476C95.8517 28.1902 96.1287 29.3438 96.1287 30.514C96.1287 31.6842 95.8517 32.8378 95.3205 33.8805C94.8173 34.803 94.0638 35.5646 93.1468 36.0777C92.2183 36.601 91.1678 36.869 90.1021 36.8546V36.8467ZM89.1996 33.4332C89.6571 33.4382 90.1073 33.3188 90.5023 33.0879C90.8978 32.8485 91.2185 32.5033 91.4283 32.0913C91.656 31.5994 91.774 31.0639 91.774 30.5219C91.774 29.9798 91.656 29.4443 91.4283 28.9524C91.2231 28.5404 90.9041 28.1958 90.5091 27.9593C90.1142 27.7229 89.6597 27.6046 89.1996 27.6184C88.7395 27.6046 88.2851 27.7229 87.8902 27.9593C87.4952 28.1958 87.1762 28.5404 86.971 28.9524C86.7433 29.4443 86.6253 29.9798 86.6253 30.5219C86.6253 31.0639 86.7433 31.5994 86.971 32.0913C87.1783 32.5051 87.4996 32.8509 87.897 33.0879C88.2915 33.3199 88.742 33.4393 89.1996 33.4332Z" fill="black"/>
<path d="M104.282 36.8545C103.043 36.892 101.814 36.6225 100.704 36.0698C99.6947 35.5577 98.8452 34.7788 98.2477 33.8177C97.7885 33.0893 97.4869 32.2728 97.3623 31.4209C97.2377 30.5689 97.2929 29.7003 97.5242 28.8709C97.7556 28.0416 98.158 27.2698 98.7057 26.6054C99.2533 25.9409 99.934 25.3985 100.704 25.013C101.816 24.4676 103.044 24.1984 104.282 24.2283C105.523 24.2027 106.752 24.4716 107.868 25.013C108.879 25.5119 109.73 26.284 110.325 27.2417C110.781 27.9729 111.079 28.7909 111.202 29.6438C111.325 30.4967 111.269 31.3659 111.038 32.1961C110.807 33.0262 110.406 33.7993 109.861 34.4662C109.315 35.1331 108.636 35.6792 107.868 36.0698C106.755 36.6198 105.524 36.8891 104.282 36.8545ZM104.282 33.441C104.745 33.448 105.201 33.3287 105.601 33.0957C105.999 32.8586 106.318 32.5092 106.519 32.0913C106.754 31.6021 106.872 31.0647 106.864 30.5218C106.878 29.9783 106.76 29.4396 106.519 28.9524C106.312 28.5431 105.993 28.2004 105.601 27.9636C105.2 27.7331 104.744 27.6164 104.282 27.6262C103.825 27.6177 103.375 27.7343 102.98 27.9636C102.584 28.2017 102.261 28.5436 102.046 28.9524C101.804 29.4396 101.686 29.9783 101.7 30.5218C101.692 31.0647 101.81 31.6021 102.046 32.0913C102.264 32.5077 102.596 32.8535 103.003 33.0879C103.391 33.3158 103.833 33.435 104.282 33.4332V33.441Z" fill="black"/>
<path d="M119.482 36.8546C118.225 36.8899 116.979 36.6207 115.849 36.0698C114.823 35.5634 113.957 34.7842 113.345 33.8177C112.75 32.8243 112.436 31.6878 112.436 30.5297C112.436 29.3715 112.75 28.2351 113.345 27.2417C113.958 26.282 114.825 25.5106 115.849 25.013C116.981 24.4694 118.226 24.2006 119.482 24.2283C120.74 24.1977 121.984 24.5038 123.084 25.1151C124.064 25.6737 124.823 26.5518 125.234 27.6027L121.907 29.3055C121.675 28.796 121.305 28.3612 120.84 28.05C120.427 27.7869 119.948 27.6479 119.458 27.6498C118.984 27.6421 118.516 27.7584 118.101 27.9872C117.691 28.2169 117.355 28.5603 117.136 28.9759C116.888 29.4611 116.767 30.0009 116.783 30.5454C116.771 31.0895 116.892 31.6282 117.136 32.1148C117.353 32.5342 117.689 32.8807 118.101 33.1114C118.516 33.3426 118.984 33.4616 119.458 33.4567C119.948 33.4585 120.427 33.3196 120.84 33.0565C121.303 32.7434 121.673 32.3091 121.907 31.8009L125.234 33.4959C124.825 34.55 124.066 35.4313 123.084 35.9914C121.981 36.5944 120.738 36.8924 119.482 36.8546Z" fill="black"/>
<path d="M126.851 36.6427V24.3696H130.955V27.948L130.343 26.9278C130.669 26.0508 131.294 25.3171 132.108 24.8562C133.021 24.3748 134.043 24.137 135.074 24.1656V28.0421C134.906 28.0151 134.735 27.9967 134.564 27.9872H134.101C133.328 27.9498 132.569 28.2047 131.975 28.7013C131.679 29.0119 131.455 29.384 131.32 29.7909C131.184 30.1978 131.14 30.6295 131.19 31.0555V36.6898L126.851 36.6427Z" fill="black"/>
<path d="M139.963 36.8545C139.108 36.8807 138.257 36.7116 137.476 36.3602C136.845 36.0763 136.31 35.6135 135.939 35.0291C135.568 34.4447 135.377 33.7643 135.389 33.0722C135.372 32.3761 135.576 31.6925 135.969 31.1182C136.416 30.5224 137.035 30.0785 137.743 29.847C138.756 29.5212 139.818 29.3725 140.882 29.4075H143.777V31.6518H141.454C140.944 31.6024 140.432 31.7208 139.995 31.9892C139.862 32.0997 139.754 32.2382 139.681 32.3949C139.607 32.5515 139.569 32.7225 139.569 32.8956C139.569 33.0687 139.607 33.2397 139.681 33.3964C139.754 33.553 139.862 33.6915 139.995 33.802C140.338 34.0441 140.753 34.163 141.172 34.1394C141.623 34.1446 142.067 34.0222 142.451 33.7863C142.849 33.5367 143.149 33.1568 143.299 32.7112L143.887 34.2806C143.705 35.0621 143.234 35.7459 142.569 36.1954C141.783 36.6635 140.878 36.8926 139.963 36.8545ZM143.589 36.6505V34.367L143.291 33.802V29.588C143.307 29.2971 143.261 29.006 143.154 28.735C143.047 28.464 142.882 28.2195 142.671 28.0185C142.097 27.5867 141.385 27.3802 140.67 27.4379C140.062 27.4401 139.459 27.5354 138.881 27.7203C138.314 27.8841 137.782 28.1501 137.311 28.5051L135.867 25.5859C136.635 25.1003 137.479 24.745 138.363 24.5344C139.313 24.2868 140.292 24.1603 141.274 24.1577C142.931 24.0572 144.57 24.5434 145.904 25.531C147.002 26.4413 147.552 27.8851 147.552 29.8234V36.6348L143.589 36.6505Z" fill="black"/>
<path d="M149.019 28.0421V24.8247H157.933V28.0421H149.019ZM155.791 36.8546C154.468 36.9377 153.161 36.5235 152.127 35.6932C151.664 35.2372 151.306 34.6856 151.078 34.0771C150.85 33.4685 150.758 32.8176 150.808 32.1698V21.6309H155.116V32.1462C155.104 32.333 155.13 32.5204 155.192 32.6971C155.254 32.8737 155.351 33.036 155.477 33.1742C155.596 33.299 155.74 33.3971 155.9 33.4621C156.059 33.527 156.231 33.5572 156.403 33.5508C156.87 33.5657 157.329 33.431 157.714 33.1663L158.781 36.1797C158.373 36.4382 157.921 36.6191 157.447 36.7133C156.901 36.8166 156.346 36.8639 155.791 36.8546Z" fill="black"/>
<path d="M166.503 36.8545C165.195 36.8982 163.896 36.6292 162.713 36.0698C161.677 35.5646 160.805 34.7789 160.194 33.802C159.59 32.8186 159.28 31.6834 159.299 30.5297C159.281 29.3782 159.585 28.2446 160.178 27.2574C160.756 26.3012 161.591 25.5263 162.587 25.0209C163.638 24.5014 164.793 24.2254 165.965 24.2131C167.138 24.2009 168.298 24.4529 169.359 24.9503C170.333 25.4351 171.149 26.1861 171.714 27.1161C172.327 28.1638 172.631 29.3634 172.592 30.5768C172.592 30.7259 172.592 30.9063 172.592 31.1025C172.592 31.2987 172.592 31.4792 172.545 31.644H162.838V29.3761H170.262L168.63 30.0118C168.658 29.5093 168.552 29.0084 168.324 28.56C168.119 28.1645 167.806 27.8352 167.421 27.6105C167.01 27.377 166.544 27.2603 166.071 27.273C165.599 27.2623 165.133 27.3788 164.722 27.6105C164.337 27.8372 164.028 28.1732 163.835 28.5757C163.612 29.0292 163.501 29.53 163.513 30.0353V30.6945C163.498 31.2418 163.628 31.7834 163.89 32.2639C164.136 32.702 164.511 33.053 164.965 33.2684C165.487 33.5158 166.059 33.6368 166.636 33.6215C167.171 33.6364 167.704 33.5484 168.206 33.3625C168.671 33.171 169.103 32.9061 169.485 32.5778L171.753 34.932C171.153 35.5888 170.409 36.0966 169.579 36.4151C168.591 36.7557 167.547 36.9049 166.503 36.8545Z" fill="black"/>
<path d="M179.066 36.8546C178.041 36.8574 177.018 36.7361 176.022 36.4936C175.198 36.3076 174.405 36.0037 173.667 35.5912L174.954 32.6485C175.587 33.0031 176.266 33.2673 176.971 33.4332C177.711 33.6334 178.473 33.7363 179.239 33.7392C179.752 33.7742 180.266 33.6965 180.746 33.5116C180.867 33.4604 180.97 33.3754 181.044 33.2668C181.118 33.1583 181.158 33.0308 181.162 32.8996C181.16 32.7797 181.121 32.6633 181.049 32.5674C180.977 32.4714 180.876 32.4009 180.761 32.366C180.428 32.237 180.08 32.15 179.726 32.107L178.305 31.903C177.795 31.8245 177.277 31.7225 176.736 31.5969C176.231 31.4789 175.749 31.2802 175.308 31.0084C174.877 30.7462 174.522 30.3755 174.28 29.9333C174.004 29.4036 173.872 28.8113 173.895 28.2147C173.884 27.4587 174.127 26.7209 174.586 26.1195C175.111 25.4549 175.812 24.9517 176.61 24.6678C177.653 24.2872 178.757 24.1061 179.867 24.1342C180.747 24.1347 181.625 24.2241 182.488 24.401C183.268 24.5406 184.021 24.8056 184.716 25.1857L183.422 28.1049C182.861 27.7747 182.252 27.5338 181.617 27.3908C181.049 27.2691 180.471 27.206 179.89 27.2025C179.37 27.1618 178.848 27.2479 178.368 27.4536C178.243 27.5033 178.136 27.5871 178.056 27.6954C177.977 27.8036 177.93 27.9319 177.921 28.0656C177.923 28.1849 177.961 28.3008 178.03 28.3985C178.098 28.4963 178.194 28.5716 178.305 28.615C178.633 28.7663 178.983 28.8669 179.341 28.9132L180.754 29.1172C181.283 29.1821 181.808 29.2844 182.323 29.4232C182.823 29.5508 183.302 29.7517 183.743 30.0196C184.173 30.2827 184.529 30.6498 184.779 31.0869C185.052 31.6145 185.185 32.2037 185.164 32.7976C185.167 33.5331 184.924 34.2485 184.473 34.83C183.937 35.4892 183.232 35.9909 182.433 36.2817C181.358 36.6863 180.215 36.8808 179.066 36.8546Z" fill="black"/>
<path d="M17.2482 32.3032C21.2581 34.4376 26.1469 32.5386 28.2343 29.486C31.075 25.2956 30.4708 20.854 27.3476 17.566C24.7109 14.796 19.7044 14.1918 17.358 16.1222C21.6583 21.3327 21.4622 26.9435 17.2482 32.3032ZM12.6811 32.1462C11.7679 34.0472 11.5674 36.2129 12.1161 38.2492C12.6648 40.2856 13.9262 42.0574 15.6709 43.2422C17.4238 44.5247 19.5821 45.1288 21.7461 44.9427C23.9101 44.7566 25.9335 43.7929 27.4418 42.2299C30.4394 39.2872 30.7768 34.1473 28.9327 32.2796C23.628 36.4073 18.5587 36.6584 12.6811 32.1462ZM17.3031 27.7125C19.8299 23.0591 16.9971 18.39 14.5095 16.6636C10.8527 14.129 5.65782 14.5448 2.73864 17.5582C0.0862741 20.2655 -0.776922 24.9111 1.16919 27.6654C6.48178 23.3887 11.9748 23.3652 17.3031 27.7439V27.7125ZM12.8616 27.6105C11.0275 26.6867 8.92411 26.4472 6.92923 26.9347C4.93436 27.4223 3.17868 28.6051 1.97746 30.2707C-0.619978 33.8883 -0.816166 38.0552 2.33842 41.9003C3.59668 43.357 5.30571 44.3513 7.19391 44.7253C9.0821 45.0992 11.0411 44.8313 12.7596 43.9642C8.48281 38.5888 8.41219 33.1507 12.8616 27.6419V27.6105Z" fill="#5D5FF8"/>
<path d="M17.248 32.3032C21.462 26.9435 21.6582 21.317 17.3422 16.1222C19.6964 14.1918 24.6951 14.796 27.3318 17.566C30.4707 20.8462 31.0592 25.2956 28.2185 29.486C26.1468 32.5386 21.258 34.4376 17.248 32.3032Z" fill="#5D5FF8"/>
<path d="M12.6811 32.1462C18.5587 36.627 23.6673 36.3759 28.9171 32.2796C30.7612 34.1472 30.4237 39.2872 27.4261 42.2299C25.9178 43.7929 23.8945 44.7566 21.7304 44.9427C19.5664 45.1288 17.4082 44.5247 15.6552 43.2422C13.9133 42.055 12.655 40.2822 12.1093 38.2461C11.5635 36.2099 11.7664 34.0455 12.6811 32.1462Z" fill="#5D5FF8"/>
<path d="M17.3033 27.744C11.9358 23.3652 6.50551 23.3888 1.1223 27.6969C-0.808122 24.9425 0.055075 20.2969 2.69175 17.5896C5.64231 14.5763 10.8372 14.1604 14.4626 16.695C16.9973 18.4214 19.8223 23.0906 17.3033 27.744Z" fill="#5D5FF8"/>
<path d="M12.8616 27.6419C8.41225 33.135 8.48287 38.6281 12.7832 43.9642C11.0654 44.8409 9.10348 45.1171 7.21042 44.7487C5.31736 44.3804 3.60218 43.3886 2.33849 41.9317C-0.800408 38.0866 -0.619915 33.9197 1.97752 30.3022C3.17874 28.6365 4.93442 27.4537 6.9293 26.9661C8.92417 26.4786 11.0275 26.7182 12.8616 27.6419Z" fill="#5D5FF8"/>
</g>
<defs>
<clipPath id="clip0_250_206">
<rect width="185.14" height="30" fill="white" transform="translate(0 15)"/>
</clipPath>
</defs>
</svg>
