<svg width="186" height="31" viewBox="0 0 186 31" fill="none" xmlns="http://www.w3.org/2000/svg">
<g clip-path="url(#clip0_55_676)">
<path d="M45.9925 22.6195H41.5117V6.76807H45.9925V22.6195ZM52.4272 16.4437H45.7178V12.7241H52.4664L52.4272 16.4437ZM52.1055 6.76807H56.5941V22.6195H52.1055V6.76807Z" fill="white"/>
<path d="M61.7108 8.98859C61.018 9.02048 60.3391 8.78766 59.8118 8.3373C59.582 8.13194 59.3982 7.8804 59.2724 7.59913C59.1466 7.31787 59.0815 7.01319 59.0815 6.70506C59.0815 6.39693 59.1466 6.09226 59.2724 5.81099C59.3982 5.52973 59.582 5.27819 59.8118 5.07282C60.3363 4.61682 61.0165 4.38073 61.7108 4.41368C62.3995 4.38215 63.0756 4.60565 63.6098 5.04145C63.8416 5.23137 64.0276 5.47111 64.1539 5.74284C64.2803 6.01456 64.3437 6.31127 64.3396 6.6109C64.3469 6.92667 64.2871 7.24035 64.1639 7.53122C64.0408 7.82209 63.8573 8.08347 63.6255 8.29803C63.1027 8.77071 62.4149 9.01875 61.7108 8.98859ZM59.5606 22.6192V10.3462H63.8609V22.6192H59.5606Z" fill="white"/>
<path d="M66.6465 27.0137V10.3462H70.7428V12.4335V16.4827L70.9703 20.5632V27.0137H66.6465ZM74.3682 22.8233C73.4288 22.8513 72.5008 22.6118 71.6923 22.1327C70.9221 21.6376 70.3309 20.9088 70.0051 20.0532C69.5853 18.9112 69.3907 17.6987 69.4322 16.4827C69.3933 15.2643 69.5768 14.0491 69.9737 12.8965C70.2771 12.0441 70.8537 11.3157 71.6138 10.8248C72.4497 10.3433 73.4042 10.1067 74.3682 10.1421C75.4344 10.1316 76.4846 10.4022 77.4129 10.9269C78.3249 11.4466 79.0767 12.2066 79.5866 13.1241C80.113 14.1682 80.3872 15.3212 80.3872 16.4905C80.3872 17.6598 80.113 18.8129 79.5866 19.857C79.0813 20.778 78.3284 21.5391 77.4129 22.0542C76.484 22.5765 75.4338 22.8445 74.3682 22.8311V22.8233ZM73.4579 19.4097C73.9191 19.4186 74.3734 19.2974 74.7689 19.0601C75.1645 18.8228 75.4852 18.4789 75.6944 18.0678C75.9171 17.5746 76.0323 17.0396 76.0323 16.4984C76.0323 15.9572 75.9171 15.4222 75.6944 14.9289C75.4795 14.518 75.1566 14.1734 74.7606 13.9323C74.3635 13.711 73.9164 13.5949 73.4618 13.5949C73.0072 13.5949 72.5602 13.711 72.1631 13.9323C71.767 14.1734 71.4442 14.518 71.2293 14.9289C71.0015 15.4208 70.8836 15.9563 70.8836 16.4984C70.8836 17.0404 71.0015 17.576 71.2293 18.0678C71.4379 18.4777 71.7573 18.8208 72.1513 19.058C72.5453 19.2953 72.998 19.4171 73.4579 19.4097Z" fill="white"/>
<path d="M82.3804 27.0137V10.3462H86.5237V12.4336V16.4827L86.7513 20.5633V27.0137H82.3804ZM90.1021 22.8233C89.1651 22.8515 88.2396 22.612 87.434 22.1327C86.662 21.6397 86.0702 20.9103 85.7469 20.0532C85.3244 18.9118 85.1272 17.6992 85.1662 16.4827C85.1272 15.2643 85.3107 14.0491 85.7076 12.8966C86.0141 12.0435 86.5933 11.3154 87.3555 10.8249C88.1885 10.3432 89.1405 10.1065 90.1021 10.1422C91.1685 10.1305 92.2189 10.4012 93.1468 10.9269C94.0605 11.4444 94.8129 12.2049 95.3205 13.1241C95.8517 14.1668 96.1287 15.3204 96.1287 16.4906C96.1287 17.6608 95.8517 18.8144 95.3205 19.8571C94.8173 20.7796 94.0638 21.5412 93.1468 22.0543C92.2183 22.5776 91.1678 22.8456 90.1021 22.8312V22.8233ZM89.1996 19.4098C89.6571 19.4147 90.1073 19.2954 90.5023 19.0645C90.8978 18.8251 91.2185 18.4799 91.4283 18.0679C91.656 17.576 91.774 17.0405 91.774 16.4984C91.774 15.9564 91.656 15.4208 91.4283 14.929C91.2231 14.5169 90.9041 14.1723 90.5091 13.9359C90.1142 13.6995 89.6597 13.5811 89.1996 13.5949C88.7395 13.5811 88.2851 13.6995 87.8902 13.9359C87.4952 14.1723 87.1762 14.5169 86.971 14.929C86.7433 15.4208 86.6253 15.9564 86.6253 16.4984C86.6253 17.0405 86.7433 17.576 86.971 18.0679C87.1783 18.4816 87.4996 18.8274 87.897 19.0645C88.2915 19.2965 88.742 19.4159 89.1996 19.4098Z" fill="white"/>
<path d="M104.282 22.8311C103.043 22.8686 101.814 22.599 100.704 22.0464C99.6947 21.5342 98.8452 20.7553 98.2477 19.7942C97.7885 19.0659 97.4869 18.2494 97.3623 17.3974C97.2377 16.5455 97.2929 15.6769 97.5242 14.8475C97.7556 14.0181 98.158 13.2464 98.7057 12.5819C99.2533 11.9175 99.934 11.3751 100.704 10.9896C101.816 10.4442 103.044 10.175 104.282 10.2049C105.523 10.1792 106.752 10.4482 107.868 10.9896C108.879 11.4885 109.73 12.2605 110.325 13.2182C110.781 13.9494 111.079 14.7674 111.202 15.6204C111.325 16.4733 111.269 17.3424 111.038 18.1726C110.807 19.0028 110.406 19.7759 109.861 20.4427C109.315 21.1096 108.636 21.6557 107.868 22.0464C106.755 22.5963 105.524 22.8657 104.282 22.8311ZM104.282 19.4176C104.745 19.4246 105.201 19.3052 105.601 19.0723C105.999 18.8352 106.318 18.4857 106.519 18.0678C106.754 17.5786 106.872 17.0413 106.864 16.4984C106.878 15.9549 106.76 15.4161 106.519 14.9289C106.312 14.5196 105.993 14.1769 105.601 13.9402C105.2 13.7096 104.744 13.5929 104.282 13.6027C103.825 13.5942 103.375 13.7109 102.98 13.9402C102.584 14.1782 102.261 14.5202 102.046 14.9289C101.804 15.4161 101.686 15.9549 101.7 16.4984C101.692 17.0413 101.81 17.5786 102.046 18.0678C102.264 18.4843 102.596 18.83 103.003 19.0644C103.391 19.2923 103.833 19.4116 104.282 19.4097V19.4176Z" fill="white"/>
<path d="M119.482 22.831C118.225 22.8663 116.979 22.5971 115.849 22.0462C114.823 21.5398 113.957 20.7606 113.345 19.7941C112.75 18.8007 112.436 17.6643 112.436 16.5061C112.436 15.3479 112.75 14.2115 113.345 13.2181C113.958 12.2584 114.825 11.487 115.849 10.9895C116.981 10.4458 118.226 10.177 119.482 10.2047C120.74 10.1741 121.984 10.4802 123.084 11.0915C124.064 11.6501 124.823 12.5282 125.234 13.5791L121.907 15.2819C121.675 14.7724 121.305 14.3376 120.84 14.0264C120.427 13.7633 119.948 13.6243 119.458 13.6262C118.984 13.6185 118.516 13.7348 118.101 13.9636C117.691 14.1933 117.355 14.5367 117.136 14.9523C116.888 15.4375 116.767 15.9773 116.783 16.5218C116.771 17.0659 116.892 17.6046 117.136 18.0912C117.353 18.5106 117.689 18.8571 118.101 19.0878C118.516 19.319 118.984 19.438 119.458 19.4331C119.948 19.4349 120.427 19.296 120.84 19.0329C121.303 18.7198 121.673 18.2856 121.907 17.7773L125.234 19.4723C124.825 20.5265 124.066 21.4077 123.084 21.9678C121.981 22.5708 120.738 22.8688 119.482 22.831Z" fill="white"/>
<path d="M126.851 22.619V10.346H130.955V13.9243L130.343 12.9042C130.669 12.0271 131.294 11.2935 132.108 10.8325C133.021 10.3512 134.043 10.1133 135.074 10.142V14.0185C134.906 13.9914 134.735 13.9731 134.564 13.9636H134.101C133.328 13.9262 132.569 14.1811 131.975 14.6776C131.679 14.9883 131.455 15.3603 131.32 15.7672C131.184 16.1741 131.14 16.6059 131.19 17.0318V22.6661L126.851 22.619Z" fill="white"/>
<path d="M139.963 22.8309C139.108 22.857 138.257 22.6879 137.476 22.3365C136.845 22.0527 136.31 21.5899 135.939 21.0054C135.568 20.421 135.377 19.7407 135.389 19.0485C135.372 18.3524 135.576 17.6689 135.969 17.0946C136.416 16.4987 137.035 16.0549 137.743 15.8233C138.756 15.4975 139.818 15.3489 140.882 15.3839H143.777V17.6282H141.454C140.944 17.5787 140.432 17.6972 139.995 17.9656C139.862 18.076 139.754 18.2146 139.681 18.3712C139.607 18.5279 139.569 18.6989 139.569 18.872C139.569 19.0451 139.607 19.2161 139.681 19.3727C139.754 19.5294 139.862 19.6679 139.995 19.7783C140.338 20.0204 140.753 20.1393 141.172 20.1157C141.623 20.1209 142.067 19.9986 142.451 19.7626C142.849 19.5131 143.149 19.1331 143.299 18.6875L143.887 20.257C143.705 21.0385 143.234 21.7223 142.569 22.1717C141.783 22.6399 140.878 22.8689 139.963 22.8309ZM143.589 22.6269V20.3433L143.291 19.7783V15.5643C143.307 15.2734 143.261 14.9824 143.154 14.7114C143.047 14.4404 142.882 14.1959 142.671 13.9949C142.097 13.5631 141.385 13.3565 140.67 13.4142C140.062 13.4165 139.459 13.5117 138.881 13.6967C138.314 13.8605 137.782 14.1264 137.311 14.4814L135.867 11.5623C136.635 11.0767 137.479 10.7213 138.363 10.5107C139.313 10.2632 140.292 10.1366 141.274 10.1341C142.931 10.0336 144.57 10.5198 145.904 11.5073C147.002 12.4176 147.552 13.8615 147.552 15.7997V22.6111L143.589 22.6269Z" fill="white"/>
<path d="M149.019 14.0187V10.8013H157.933V14.0187H149.019ZM155.791 22.8311C154.468 22.9142 153.161 22.5001 152.127 21.6697C151.664 21.2137 151.306 20.6622 151.078 20.0536C150.85 19.4451 150.758 18.7942 150.808 18.1463V7.60742H155.116V18.1227C155.104 18.3096 155.13 18.4969 155.192 18.6736C155.254 18.8503 155.351 19.0126 155.477 19.1507C155.596 19.2755 155.74 19.3736 155.9 19.4386C156.059 19.5035 156.231 19.5338 156.403 19.5274C156.87 19.5422 157.329 19.4075 157.714 19.1429L158.781 22.1562C158.373 22.4147 157.921 22.5956 157.447 22.6898C156.901 22.7931 156.346 22.8404 155.791 22.8311Z" fill="white"/>
<path d="M166.503 22.8313C165.195 22.875 163.896 22.606 162.713 22.0466C161.677 21.5414 160.805 20.7556 160.194 19.7787C159.59 18.7954 159.28 17.6601 159.299 16.5064C159.281 15.3549 159.585 14.2213 160.178 13.2341C160.756 12.278 161.591 11.5031 162.587 10.9976C163.638 10.4782 164.793 10.2021 165.965 10.1899C167.138 10.1777 168.298 10.4296 169.359 10.927C170.333 11.4119 171.149 12.1629 171.714 13.0929C172.327 14.1406 172.631 15.3402 172.592 16.5535C172.592 16.7026 172.592 16.8831 172.592 17.0793C172.592 17.2754 172.592 17.4559 172.545 17.6207H162.838V15.3528H170.262L168.63 15.9885C168.658 15.4861 168.552 14.9851 168.324 14.5368C168.119 14.1412 167.806 13.812 167.421 13.5872C167.01 13.3537 166.544 13.237 166.071 13.2498C165.599 13.239 165.133 13.3556 164.722 13.5872C164.337 13.8139 164.028 14.1499 163.835 14.5525C163.612 15.006 163.501 15.5067 163.513 16.012V16.6712C163.498 17.2185 163.628 17.7601 163.89 18.2407C164.136 18.6788 164.511 19.0297 164.965 19.2451C165.487 19.4926 166.059 19.6135 166.636 19.5982C167.171 19.6131 167.704 19.5252 168.206 19.3393C168.671 19.1477 169.103 18.8828 169.485 18.5545L171.753 20.9087C171.153 21.5655 170.409 22.0734 169.579 22.3918C168.591 22.7325 167.547 22.8816 166.503 22.8313Z" fill="white"/>
<path d="M179.066 22.8311C178.041 22.8339 177.018 22.7127 176.022 22.4701C175.198 22.2841 174.405 21.9802 173.667 21.5677L174.954 18.625C175.587 18.9797 176.266 19.2438 176.971 19.4097C177.711 19.61 178.473 19.7129 179.239 19.7158C179.752 19.7507 180.266 19.673 180.746 19.4882C180.867 19.4369 180.97 19.352 181.044 19.2434C181.118 19.1348 181.158 19.0073 181.162 18.8761C181.16 18.7562 181.121 18.6399 181.049 18.5439C180.977 18.448 180.876 18.3775 180.761 18.3425C180.428 18.2136 180.08 18.1266 179.726 18.0836L178.305 17.8795C177.795 17.801 177.277 17.699 176.736 17.5735C176.231 17.4555 175.749 17.2568 175.308 16.9849C174.877 16.7228 174.522 16.352 174.28 15.9099C174.004 15.3801 173.872 14.7878 173.895 14.1913C173.884 13.4353 174.127 12.6974 174.586 12.0961C175.111 11.4315 175.812 10.9283 176.61 10.6443C177.653 10.2637 178.757 10.0827 179.867 10.1107C180.747 10.1113 181.625 10.2007 182.488 10.3776C183.268 10.5172 184.021 10.7822 184.716 11.1623L183.422 14.0814C182.861 13.7513 182.252 13.5104 181.617 13.3674C181.049 13.2456 180.471 13.1825 179.89 13.179C179.37 13.1383 178.848 13.2245 178.368 13.4301C178.243 13.4799 178.136 13.5637 178.056 13.6719C177.977 13.7802 177.93 13.9085 177.921 14.0422C177.923 14.1615 177.961 14.2773 178.03 14.3751C178.098 14.4728 178.194 14.5482 178.305 14.5915C178.633 14.7429 178.983 14.8434 179.341 14.8897L180.754 15.0938C181.283 15.1586 181.808 15.2609 182.323 15.3998C182.823 15.5274 183.302 15.7283 183.743 15.9962C184.173 16.2592 184.529 16.6263 184.779 17.0634C185.052 17.5911 185.185 18.1803 185.164 18.7741C185.167 19.5097 184.924 20.2251 184.473 20.8065C183.937 21.4657 183.232 21.9674 182.433 22.2583C181.358 22.6629 180.215 22.8573 179.066 22.8311Z" fill="white"/>
<path d="M17.2482 18.2796C21.2581 20.414 26.1469 18.515 28.2343 15.4624C31.075 11.272 30.4708 6.83041 27.3476 3.54242C24.7109 0.772342 19.7044 0.168132 17.358 2.09855C21.6583 7.30912 21.4622 12.9199 17.2482 18.2796ZM12.6811 18.1226C11.7679 20.0236 11.5674 22.1893 12.1161 24.2256C12.6648 26.262 13.9262 28.0337 15.6709 29.2186C17.4238 30.5011 19.5821 31.1052 21.7461 30.9191C23.9101 30.7329 25.9335 29.7692 27.4418 28.2063C30.4394 25.2636 30.7768 20.1236 28.9327 18.256C23.628 22.3836 18.5587 22.6348 12.6811 18.1226ZM17.3031 13.6889C19.8299 9.03548 16.9971 4.36641 14.5095 2.64001C10.8527 0.105356 5.65782 0.521223 2.73864 3.53456C0.0862741 6.24186 -0.776922 10.8874 1.16919 13.6418C6.48178 9.36507 11.9748 9.34155 17.3031 13.7203V13.6889ZM12.8616 13.5869C11.0275 12.6631 8.92411 12.4235 6.92923 12.9111C4.93436 13.3987 3.17868 14.5815 1.97746 16.2471C-0.619978 19.8647 -0.816166 24.0316 2.33842 27.8767C3.59668 29.3334 5.30571 30.3277 7.19391 30.7017C9.0821 31.0756 11.0411 30.8077 12.7596 29.9405C8.48281 24.5652 8.41219 19.1271 12.8616 13.6183V13.5869Z" fill="white"/>
<path d="M17.248 18.2796C21.462 12.9199 21.6582 7.29343 17.3422 2.09855C19.6964 0.168132 24.6951 0.772342 27.3318 3.54242C30.4707 6.82256 31.0592 11.272 28.2185 15.4624C26.1468 18.515 21.258 20.414 17.248 18.2796Z" fill="white"/>
<path d="M12.6811 18.1226C18.5587 22.6033 23.6673 22.3522 28.9171 18.2559C30.7612 20.1236 30.4237 25.2635 27.4261 28.2062C25.9178 29.7692 23.8945 30.7329 21.7304 30.919C19.5664 31.1051 17.4082 30.5011 15.6552 29.2186C13.9133 28.0314 12.655 26.2586 12.1093 24.2224C11.5635 22.1862 11.7664 20.0218 12.6811 18.1226Z" fill="white"/>
<path d="M17.3033 13.7204C11.9358 9.34159 6.50551 9.36514 1.1223 13.6733C-0.808122 10.9189 0.055075 6.27332 2.69175 3.56602C5.64231 0.552684 10.8372 0.136769 14.4626 2.67143C16.9973 4.39782 19.8223 9.06694 17.3033 13.7204Z" fill="white"/>
<path d="M12.8616 13.6184C8.41225 19.1115 8.48287 24.6046 12.7832 29.9407C11.0654 30.8174 9.10348 31.0936 7.21042 30.7252C5.31736 30.3569 3.60218 29.3651 2.33849 27.9082C-0.800408 24.0631 -0.619915 19.8962 1.97752 16.2787C3.17874 14.613 4.93442 13.4302 6.9293 12.9426C8.92417 12.4551 11.0275 12.6947 12.8616 13.6184Z" fill="white"/>
</g>
<defs>
<clipPath id="clip0_55_676">
<rect width="185.14" height="30" fill="white" transform="translate(0 0.976562)"/>
</clipPath>
</defs>
</svg>
